<?xml version="1.0" standalone="no"?>
<!DOCTYPE svg PUBLIC "-//W3C//DTD SVG 20010904//EN"
 "http://www.w3.org/TR/2001/REC-SVG-20010904/DTD/svg10.dtd">
<svg version="1.0" xmlns="http://www.w3.org/2000/svg"
 width="513.000000pt" height="513.000000pt" viewBox="0 0 513.000000 513.000000"
 preserveAspectRatio="xMidYMid meet">
<metadata>
Created by potrace 1.11, written by Peter Selinger 2001-2013
</metadata>
<g transform="translate(0.000000,513.000000) scale(0.100000,-0.100000)"
fill="#000000" stroke="none">
<path d="M90 4077 c3 -3 29 -8 57 -12 250 -31 510 -191 638 -391 50 -78 107
-212 121 -284 3 -14 9 -43 14 -65 19 -84 22 -200 25 -806 1 -343 5 -637 9
-654 4 -16 11 -55 17 -85 66 -326 270 -557 594 -672 61 -22 106 -32 230 -53
17 -3 161 -5 320 -5 262 0 330 4 431 25 17 4 58 1 90 -5 33 -7 73 -14 89 -16
47 -5 596 -4 633 1 17 3 45 7 61 9 190 27 425 150 550 289 113 125 197 312
226 502 4 22 8 328 10 680 2 351 6 660 9 685 14 110 20 140 43 215 46 152 115
269 217 371 118 118 322 225 476 250 121 20 106 22 -140 20 -252 -2 -270 -4
-367 -30 -337 -89 -565 -307 -656 -627 -38 -133 -40 -165 -42 -801 -3 -735 -4
-754 -51 -918 -83 -291 -280 -492 -582 -594 l-73 -25 -62 20 c-34 11 -86 31
-116 45 l-53 25 61 37 c190 115 331 329 382 577 26 131 28 171 29 830 2 475 5
616 16 675 8 41 16 84 18 95 13 71 86 238 133 306 135 194 383 341 633 375 96
13 45 16 -210 11 -276 -5 -295 -7 -445 -59 -272 -94 -472 -297 -554 -562 -12
-38 -24 -83 -26 -100 -3 -17 -8 -38 -10 -46 -15 -55 -18 -173 -20 -730 -1
-344 -5 -654 -9 -689 -21 -187 -89 -360 -199 -504 l-29 -38 -29 32 c-98 110
-180 313 -205 510 -4 30 -8 335 -9 679 -1 344 -5 649 -9 678 -12 93 -53 237
-90 317 -94 203 -264 358 -487 445 -42 16 -87 31 -100 34 -156 32 -187 35
-408 36 -129 0 -233 -1 -230 -4 2 -2 24 -6 49 -9 25 -3 54 -7 65 -10 161 -39
275 -89 385 -170 168 -124 273 -289 329 -517 26 -103 26 -102 34 -1090 2 -217
6 -404 9 -415 3 -11 9 -40 13 -65 41 -247 202 -489 404 -603 l44 -25 -39 -20
c-22 -11 -73 -31 -116 -45 -84 -28 -92 -27 -216 22 -147 59 -310 185 -394 307
-67 96 -128 251 -153 389 -14 78 -17 224 -19 795 -2 593 -3 619 -24 718 -86
398 -325 628 -757 728 -34 8 -543 18 -535 11z"/>
</g>
</svg>
